<svg xmlns="http://www.w3.org/2000/svg" viewBox="0 0 680.08 200.65"><defs><style>.cls-1{fill:#afd600;}</style></defs><g id="Layer_2" data-name="Layer 2"><g id="Layer_1-2" data-name="Layer 1"><path class="cls-1" d="M117.49.35A2.24,2.24,0,0,0,116.42,0a2.14,2.14,0,0,0-.89.16c-1.35.51-2.75.88-4.11,1.37a110.51,110.51,0,0,0-11,4.89c-3.49,1.76-6.07,3.19-7,3.72-9.76,5.39-13.51,7.3-16.6,9-11.94,6.68-22.55,15.17-28,19.53-12.21,9.73-18.31,14.59-25,22.5-6.21,7.29-21,24.65-23.39,48.74a107.18,107.18,0,0,0,.15,19.3c.7,8.14,1.38,16,4.66,24.31,5.67,14.38,16.2,22.53,23.47,28.17a80.28,80.28,0,0,0,28.87,14.52,86.67,86.67,0,0,0,13,2c22.52,2.72,51.89,4,88.89-.8,10.46-1.34,18.12-2.73,30.32-5,47-8.88,74.74-14.12,118.05-24.11,36.09-8.33,69.42-16,114-29,15.34-4.45,67.59-19.86,133.57-44.87C637.6,63.29,676.94,41.54,679,41.24c.1,0,.9-.09,1-.52s-.47-1-1.24-1.69a22.3,22.3,0,0,0-3.2-2.55c-7.41-4.15-19.37-5-19.37-5-12.81-.93-19.26-1.41-21.06-1.76-10.42-2-17.62-5.47-18.2-6.06a.81.81,0,0,0-.59-.3c-.42,0-.69.63-.75.75-.91,1.82-6.29,3.65-6.29,3.65-53.49,18.19-56.86,19.17-63.59,21.13-3.72,1.09-6.76,2-12.85,3.85-22.55,6.83-35.39,11.08-43.3,13.57-18.78,5.89-36.43,9.75-71.74,17.48-3.55.77-19.35,4.22-40.43,8.34-14.22,2.79-22.92,4.51-35,6.53-18.23,3-17.3,2.3-32.61,5-22.17,3.84-23.81,5.33-38.61,7-9.34,1.08-8.81.5-26.35,2.08-19.25,1.74-18.49,2.32-29.73,3.13-12.75.93-26.24,1.84-43.05-.52-9.72-1.36-16.36-2.29-24.78-6-5.45-2.4-17.11-7.53-25.83-19.56-9.54-13.17-10.33-27.38-11-38.61a111,111,0,0,1,.78-19.31,177.89,177.89,0,0,1,6.26-29.48Z"/></g></g></svg>